<?xml version="1.0" standalone="no"?>
<!DOCTYPE svg PUBLIC "-//W3C//DTD SVG 20010904//EN"
 "http://www.w3.org/TR/2001/REC-SVG-20010904/DTD/svg10.dtd">
<svg version="1.0" xmlns="http://www.w3.org/2000/svg"
 width="304.000000pt" height="304.000000pt" viewBox="0 0 304.000000 304.000000"
 preserveAspectRatio="xMidYMid meet">

<g transform="translate(0.000000,304.000000) scale(0.100000,-0.100000)"
fill="#000000" stroke="none">
<path d="M1365 2640 c-11 -5 -120 -109 -243 -232 -237 -238 -246 -251 -228
-325 5 -19 172 -193 522 -543 441 -442 514 -520 514 -544 0 -25 -36 -66 -227
-258 -243 -244 -238 -237 -164 -257 69 -20 83 -10 309 213 117 116 220 223
228 238 8 15 14 49 14 75 l0 48 -509 510 c-280 280 -514 520 -520 532 -7 14
-8 30 -2 45 5 13 106 121 225 240 119 119 216 222 216 228 0 14 -62 40 -92 39
-13 0 -32 -4 -43 -9z"/>
<path d="M1935 2631 c-16 -10 -125 -115 -242 -232 -230 -232 -241 -250 -212
-322 16 -39 377 -409 438 -448 51 -33 85 -36 138 -14 l37 16 -55 55 c-30 31
-132 134 -226 228 -157 157 -173 175 -173 207 0 31 18 53 225 259 124 124 225
228 225 233 0 12 -65 37 -97 37 -15 0 -41 -9 -58 -19z"/>
<path d="M920 1505 c-14 -7 -24 -17 -22 -22 1 -4 103 -109 227 -234 168 -168
225 -231 225 -249 0 -18 -58 -83 -231 -256 l-232 -232 29 -15 c49 -24 82 -28
116 -13 18 7 133 115 256 238 l222 225 0 53 0 54 -217 219 c-120 120 -230 225
-245 233 -34 18 -95 18 -128 -1z"/>
</g>
</svg>
